<svg id="visual" viewBox="0 0 900 300" width="900" height="300" xmlns="http://www.w3.org/2000/svg" xmlns:xlink="http://www.w3.org/1999/xlink" version="1.1"><path d="M0 38L12.5 47.2C25 56.3 50 74.7 75 75.2C100 75.7 125 58.3 150 69.2C175 80 200 119 225 130.7C250 142.3 275 126.7 300 121.5C325 116.3 350 121.7 375 112C400 102.3 425 77.7 450 68.5C475 59.3 500 65.7 525 81.3C550 97 575 122 600 128.2C625 134.3 650 121.7 675 103C700 84.3 725 59.7 750 62.3C775 65 800 95 825 99.5C850 104 875 83 887.5 72.5L900 62L900 301L887.5 301C875 301 850 301 825 301C800 301 775 301 750 301C725 301 700 301 675 301C650 301 625 301 600 301C575 301 550 301 525 301C500 301 475 301 450 301C425 301 400 301 375 301C350 301 325 301 300 301C275 301 250 301 225 301C200 301 175 301 150 301C125 301 100 301 75 301C50 301 25 301 12.5 301L0 301Z" fill="#fe3218"></path><path d="M0 197L12.5 183.8C25 170.7 50 144.3 75 142.3C100 140.3 125 162.7 150 170.2C175 177.7 200 170.3 225 169.3C250 168.3 275 173.7 300 163C325 152.3 350 125.7 375 127.8C400 130 425 161 450 163.5C475 166 500 140 525 136.2C550 132.3 575 150.7 600 149.5C625 148.3 650 127.7 675 113.8C700 100 725 93 750 93.8C775 94.7 800 103.3 825 106.3C850 109.3 875 106.7 887.5 105.3L900 104L900 301L887.5 301C875 301 850 301 825 301C800 301 775 301 750 301C725 301 700 301 675 301C650 301 625 301 600 301C575 301 550 301 525 301C500 301 475 301 450 301C425 301 400 301 375 301C350 301 325 301 300 301C275 301 250 301 225 301C200 301 175 301 150 301C125 301 100 301 75 301C50 301 25 301 12.5 301L0 301Z" fill="#be004f"></path><path d="M0 207L12.5 208.8C25 210.7 50 214.3 75 212.8C100 211.3 125 204.7 150 205.7C175 206.7 200 215.3 225 208.3C250 201.3 275 178.7 300 180.8C325 183 350 210 375 214.3C400 218.7 425 200.3 450 192.7C475 185 500 188 525 190C550 192 575 193 600 192.7C625 192.3 650 190.7 675 196.2C700 201.7 725 214.3 750 216.2C775 218 800 209 825 210.2C850 211.3 875 222.7 887.5 228.3L900 234L900 301L887.5 301C875 301 850 301 825 301C800 301 775 301 750 301C725 301 700 301 675 301C650 301 625 301 600 301C575 301 550 301 525 301C500 301 475 301 450 301C425 301 400 301 375 301C350 301 325 301 300 301C275 301 250 301 225 301C200 301 175 301 150 301C125 301 100 301 75 301C50 301 25 301 12.5 301L0 301Z" fill="#640653"></path><path d="M0 258L12.5 253.2C25 248.3 50 238.7 75 234.3C100 230 125 231 150 235.5C175 240 200 248 225 255.2C250 262.3 275 268.7 300 261.2C325 253.7 350 232.3 375 220.8C400 209.3 425 207.7 450 216.3C475 225 500 244 525 250C550 256 575 249 600 240.3C625 231.7 650 221.3 675 224C700 226.7 725 242.3 750 246C775 249.7 800 241.3 825 231.7C850 222 875 211 887.5 205.5L900 200L900 301L887.5 301C875 301 850 301 825 301C800 301 775 301 750 301C725 301 700 301 675 301C650 301 625 301 600 301C575 301 550 301 525 301C500 301 475 301 450 301C425 301 400 301 375 301C350 301 325 301 300 301C275 301 250 301 225 301C200 301 175 301 150 301C125 301 100 301 75 301C50 301 25 301 12.5 301L0 301Z" fill="#0c0032"></path></svg>