<svg id="visual" viewBox="0 0 960 300" width="960" height="300" xmlns="http://www.w3.org/2000/svg" xmlns:xlink="http://www.w3.org/1999/xlink" version="1.1"><path d="M0 242L137 171L274 202L411 202L549 225L686 232L823 150L960 161L960 0L823 0L686 0L549 0L411 0L274 0L137 0L0 0Z" fill="#450eff"></path><path d="M0 127L137 197L274 136L411 130L549 126L686 180L823 132L960 185L960 0L823 0L686 0L549 0L411 0L274 0L137 0L0 0Z" fill="#2a15c9"></path><path d="M0 131L137 125L274 96L411 157L549 161L686 151L823 158L960 159L960 0L823 0L686 0L549 0L411 0L274 0L137 0L0 0Z" fill="#171494"></path><path d="M0 91L137 105L274 67L411 104L549 117L686 67L823 87L960 73L960 0L823 0L686 0L549 0L411 0L274 0L137 0L0 0Z" fill="#0c0e61"></path><path d="M0 43L137 37L274 60L411 61L549 35L686 48L823 38L960 44L960 0L823 0L686 0L549 0L411 0L274 0L137 0L0 0Z" fill="#0c0032"></path></svg>